<?xml version="1.0" encoding="UTF-8" standalone="no"?>
<!-- Created with Inkscape (http://www.inkscape.org/) -->

<svg
   width="500"
   height="500"
   viewBox="0 0 132.29167 132.29166"
   version="1.1"
   id="svg5"
   inkscape:version="1.1.2 (0a00cf5339, 2022-02-04)"
   sodipodi:docname="Raffle.svg"
   inkscape:export-filename="/home/teijehidde/Documents/7CedarsGit/projects/loyal-customer-engagement-v2/foundry/src/sampleGifts/giftsMetadata/Raffle.png"
   inkscape:export-xdpi="200"
   inkscape:export-ydpi="200"
   xmlns:inkscape="http://www.inkscape.org/namespaces/inkscape"
   xmlns:sodipodi="http://sodipodi.sourceforge.net/DTD/sodipodi-0.dtd"
   xmlns="http://www.w3.org/2000/svg"
   xmlns:svg="http://www.w3.org/2000/svg">
  <sodipodi:namedview
     id="namedview7"
     pagecolor="#ffffff"
     bordercolor="#000000"
     borderopacity="0.25"
     inkscape:pageshadow="2"
     inkscape:pageopacity="0.0"
     inkscape:pagecheckerboard="0"
     inkscape:document-units="mm"
     showgrid="false"
     units="px"
     width="300px"
     inkscape:zoom="0.66368545"
     inkscape:cx="-64.789728"
     inkscape:cy="-3.7668447"
     inkscape:window-width="2560"
     inkscape:window-height="1376"
     inkscape:window-x="0"
     inkscape:window-y="0"
     inkscape:window-maximized="1"
     inkscape:current-layer="layer1" />
  <defs
     id="defs2" />
  <g
     inkscape:label="Layer 1"
     inkscape:groupmode="layer"
     id="layer1">
    <rect
       style="fill:none;fill-opacity:1;stroke:#8996a8;stroke-width:4;stroke-miterlimit:4;stroke-dasharray:none;stroke-opacity:1;stop-color:#000000"
       id="rect1024"
       width="132.42368"
       height="131.92612"
       x="0.057618521"
       y="0.39242876"
       ry="0.13213767" />
    <g
       id="SVGRepo_bgCarrier"
       stroke-width="0"
       transform="matrix(2.7384525,0,0,2.3993487,-62.800536,16.843982)" />
    <g
       id="SVGRepo_tracerCarrier"
       stroke-linecap="round"
       stroke-linejoin="round"
       transform="matrix(2.7384525,0,0,2.3993487,-62.800536,16.843982)" />
    <g
       id="SVGRepo_bgCarrier-1"
       stroke-width="0"
       transform="matrix(2.0741819,0,0,2.0741819,-1.3950413,-1.3604372)" />
    <g
       id="SVGRepo_tracerCarrier-1"
       stroke-linecap="round"
       stroke-linejoin="round"
       transform="matrix(2.0741819,0,0,2.0741819,-1.3950413,-1.3604372)" />
    <g
       id="g21766"
       transform="translate(12.700327,1.0464765)">
      <polygon
         fill="#8fd7f8"
         fill-rule="evenodd"
         points="13.35,49.78 30.44,53.38 50.65,49.78 50.65,41.19 31.32,37.7 13.35,41.19 "
         id="polygon960"
         transform="matrix(2.0443166,0,0,2.0443166,-11.424903,-2.0414874)"
         style="fill:#1daef0;fill-opacity:1" />
      <path
         d="m 11.070198,100.47251 h 84.859581 c 1.942099,0 3.536671,1.59457 3.536671,3.53667 v 7.29821 c 0,1.9421 -1.594572,3.53667 -3.536671,3.53667 H 11.070198 c -1.9421027,0 -3.5366689,-1.57413 -3.5366689,-3.53667 v -7.29821 c 0,-1.9421 1.574124,-3.53667 3.5366689,-3.53667 z"
         fill="#d9f0f3"
         id="path962"
         style="fill:#acdfe6;fill-opacity:1;stroke-width:2.04432" />
      <polygon
         fill="#f0f3f5"
         fill-rule="evenodd"
         points="31.24,45.39 19.13,47.14 19.13,54.62 32.81,56.21 44.87,54.62 44.87,47.14 "
         id="polygon964"
         transform="matrix(2.0443166,0,0,2.0443166,-11.993069,-2.5321232)" />
      <path
         d="M 21.18619,24.043993 C 12.559173,32.630123 7.7345859,44.200954 7.6937001,56.282866 L 21.206633,88.501295 c 8.5248,8.58613 20.116074,13.451605 32.21843,13.512935 L 85.663935,88.521737 C 94.290952,79.956051 99.115538,68.38522 99.156428,56.282866 L 85.643493,24.064435 C 77.118692,15.478307 65.527416,10.612833 53.425063,10.551503 Z"
         fill="#8996a8"
         fill-rule="evenodd"
         id="path968"
         style="stroke-width:2.04432" />
      <path
         d="M 53.425063,56.282866 H 7.6937001 c 0.06134,12.102354 4.9268029,23.693629 13.5129329,32.218429 z"
         fill="#9fa9b6"
         fill-rule="evenodd"
         id="path970"
         style="stroke-width:2.04432" />
      <path
         d="m 53.425063,56.282866 v 45.731364 c 12.122797,0 23.754959,-4.82459 32.320645,-13.410718 z"
         fill="#9fa9b6"
         fill-rule="evenodd"
         id="path972"
         style="stroke-width:2.04432" />
      <path
         d="m 53.425063,56.282866 h 45.731365 c 0,-12.122797 -4.82459,-23.75496 -13.390278,-32.341089 z"
         fill="#9fa9b6"
         fill-rule="evenodd"
         id="path974"
         style="stroke-width:2.04432" />
      <path
         d="m 53.425063,9.5906742 -11.16197,2.3509638 c -7.993277,2.044317 -15.291487,6.214724 -21.11779,12.081911 L 53.404619,56.282866 V 9.5906742 Z"
         fill="#9fa9b6"
         fill-rule="evenodd"
         id="path976"
         style="stroke-width:2.04432" />
      <path
         d="M 53.425063,56.425968 H 17.281545 c 0.04089,9.567401 3.884202,18.725939 10.671333,25.472185 L 53.404619,56.425968 Z"
         fill="#f0f3f5"
         fill-rule="evenodd"
         id="path980"
         style="stroke-width:2.04432" />
      <path
         d="m 53.425063,56.425968 v 36.143517 c 9.587845,0 18.766827,-3.822872 25.533514,-10.589559 z"
         fill="#f0f3f5"
         fill-rule="evenodd"
         id="path982"
         style="stroke-width:2.04432" />
      <path
         d="M 53.425063,56.425968 H 89.56858 c 0,-9.587845 -3.80243,-18.766827 -10.589561,-25.553958 z"
         fill="#f0f3f5"
         fill-rule="evenodd"
         id="path984"
         style="stroke-width:2.04432" />
      <path
         d="M 53.425063,21.386382 H 44.614058 C 38.29712,23.001391 32.532147,26.313184 27.932436,30.933339 L 53.425063,56.425968 Z"
         fill="#f0f3f5"
         fill-rule="evenodd"
         id="path986"
         style="stroke-width:2.04432" />
      <path
         d="m 63.176453,16.561794 c 0,8.58613 -9.75139,17.029157 -9.75139,17.029157 0,0 -9.751391,-8.443027 -9.751391,-17.029157 0,-5.376552 4.354395,-8.8723342 9.751391,-8.8723342 5.396995,0 9.75139,3.4957822 9.75139,8.8723342 z"
         fill="#f2d865"
         fill-rule="evenodd"
         id="path988"
         style="fill:#e374b5;fill-opacity:1;stroke-width:2.04432" />
      <path
         d="m 24.211778,109.12845 h 58.426569 c 2.473623,0 4.477053,2.00343 4.477053,4.47705 0,2.47363 -2.00343,4.47706 -4.477053,4.47706 H 24.211778 c -2.473623,0 -4.477054,-2.00343 -4.477054,-4.47706 0,-2.47362 2.003431,-4.47705 4.477054,-4.47705 z"
         fill="#e4ecf0"
         fill-rule="evenodd"
         id="path990"
         style="stroke-width:2.04432" />
      <path
         d="m 73.990887,109.12845 c 2.473624,0 4.477053,2.00343 4.477053,4.47705 0,2.47363 -2.003429,4.47706 -4.477053,4.47706 h 8.64746 c 2.473623,0 4.477053,-2.00343 4.477053,-4.47706 0,-2.47362 -2.00343,-4.47705 -4.477053,-4.47705 z"
         fill="#d9e3e9"
         fill-rule="evenodd"
         id="path992"
         style="stroke-width:2.04432" />
      <circle
         cx="53.425064"
         cy="16.704897"
         r="2.0443165"
         id="circle994"
         style="stroke-width:2.04432" />
      <path
         d="m 10.985051,115.64982 h 7.11422 c 0.858614,2.57584 3.230021,4.47705 6.112507,4.47705 h 58.426569 c 2.862043,0 5.23345,-1.90121 6.112506,-4.47705 h 7.114221 c 3.066481,0 5.580986,-2.49407 5.580986,-5.58098 v -7.29822 c 0,-3.06647 -2.494072,-5.58098 -5.580986,-5.58098 H 93.616328 V 82.163913 c 4.783698,-7.441311 7.604852,-16.272759 7.604852,-25.758387 0,-22.855461 -16.17054,-42.378684 -38.535364,-46.7944086 -2.105645,-2.45318 -5.35611,-3.9864173 -9.24031,-3.9864173 -3.884203,0 -7.134665,1.5332373 -9.240311,3.9864173 C 21.840371,14.026842 5.6698268,33.550065 5.6698268,56.405526 c 0,9.485628 2.8211578,18.317076 7.6048582,25.758387 v 15.005285 h -2.24875 c -3.0664744,0 -5.5809828,2.494066 -5.5809828,5.580982 v 7.29821 c 0,3.08692 2.4940662,5.58099 5.5809828,5.58099 z m 71.632853,0.38842 H 24.211778 c -1.34925,0 -2.432737,-1.08349 -2.432737,-2.43274 0,-1.34925 1.083487,-2.43273 2.432737,-2.43273 h 58.426569 c 1.349248,0 2.432737,1.08348 2.432737,2.43273 0,1.34925 -1.083489,2.43274 -2.432737,2.43274 z M 9.8402325,58.470283 h 5.6014265 c 0.490637,8.974551 4.047748,17.090488 9.690061,23.36654 l -3.965973,3.965973 C 14.521717,78.504588 10.330868,68.978072 9.8402325,58.490727 Z M 51.380746,34.490451 V 51.499165 L 30.835364,30.953783 c 3.577553,-3.16869 7.891062,-5.560541 12.674763,-7.032449 2.350964,5.008576 6.296496,9.056322 7.891062,10.569117 z M 63.360442,23.921334 c 4.7837,1.451464 9.076764,3.863759 12.674762,7.032449 L 55.489822,51.499165 V 34.490451 c 1.594567,-1.512795 5.519655,-5.560541 7.891062,-10.569117 z m 22.323936,61.86102 -3.965973,-3.965975 c 5.642313,-6.276052 9.199424,-14.391989 9.690061,-23.366538 h 5.60143 c -0.49064,10.507788 -4.681488,20.034302 -11.325518,27.312071 z m -30.214998,14.208 v -5.601427 c 8.974549,-0.490636 17.070043,-4.047748 23.366538,-9.69006 l 3.965974,3.965973 C 75.503681,95.30887 65.977167,99.499719 55.489822,99.990354 Z M 58.351865,58.449841 H 87.319832 C 86.849639,66.300016 83.742277,73.393795 78.835918,78.91345 Z M 75.932988,81.816379 C 70.392891,86.72274 63.319554,89.830101 55.46938,90.300294 V 61.352771 Z M 28.014207,78.933893 C 23.107847,73.393795 20.000486,66.300016 19.530293,58.470283 H 48.49826 Z M 51.380746,61.352771 V 90.300294 C 43.530569,89.830101 36.436792,86.72274 30.917135,81.816379 Z M 91.428908,54.361209 C 90.958715,45.468431 87.442491,37.311607 81.75929,30.974225 l 3.904645,-3.904643 c 6.664473,7.318652 10.793993,16.845167 11.284625,27.271183 h -5.49921 z m -4.088632,0 H 58.372309 L 78.876805,33.856713 c 4.947245,5.580983 8.01372,12.715648 8.483913,20.504496 z m -38.86246,0 H 19.509849 c 0.470193,-7.788848 3.536668,-14.923513 8.483915,-20.504496 L 48.49826,54.361209 Z m -33.056599,0 H 9.9220058 C 10.412641,43.935193 14.521717,34.408679 21.206633,27.090024 l 3.904645,3.904645 c -5.6832,6.337382 -9.199426,14.473762 -9.669619,23.386982 z M 28.03465,84.698867 c 6.276052,5.642312 14.391988,9.199424 23.366539,9.69006 v 5.601427 C 40.8934,99.499719 31.38733,95.30887 24.08912,88.66484 l 3.965973,-3.965973 z m 1.124374,12.776977 c 7.114223,4.231736 15.393705,6.705356 24.266039,6.705356 8.872333,0 17.151815,-2.47362 24.266038,-6.705356 v 9.587846 H 29.159024 Z m 68.177959,5.274336 v 7.29821 c 0,0.83817 -0.654188,1.49235 -1.492351,1.49235 h -7.114223 c -0.858612,-2.57584 -3.230019,-4.47705 -6.112505,-4.47705 H 81.75929 v -5.80586 h 14.0649 c 0.838173,0 1.492348,0.65418 1.492348,1.49235 z M 89.50725,97.169198 h -7.727517 v -2.412295 c 3.904645,-2.902929 5.560543,-4.640597 7.727517,-7.155108 v 9.546961 z M 82.761005,24.187094 78.91769,28.03041 c -3.986417,-3.597997 -8.811003,-6.276052 -14.167115,-7.95239 0.286204,-1.165262 0.449751,-2.350965 0.449751,-3.53667 0,-0.715509 -0.08177,-1.410578 -0.204431,-2.064759 6.766687,1.860329 12.797421,5.192564 17.76511,9.710503 z M 53.404619,9.7133332 c 4.538383,0 7.707073,2.8007128 7.707073,6.8280168 0,5.744532 -5.17212,11.673048 -7.707073,14.208001 -2.514509,-2.534953 -7.707073,-8.463469 -7.707073,-14.208001 0,-4.027304 3.16869,-6.8280168 7.707073,-6.8280168 z M 41.813344,14.476591 c -0.122665,0.674624 -0.204431,1.34925 -0.204431,2.064759 0,1.185705 0.163545,2.371408 0.449749,3.53667 -5.35611,1.676338 -10.160253,4.354393 -14.167114,7.95239 l -3.843315,-3.843316 c 4.96769,-4.517939 10.998422,-7.850174 17.765111,-9.710503 z M 17.342875,87.642682 c 2.391849,2.759829 4.006859,4.374837 7.727515,7.155107 v 2.412295 h -7.727515 v -9.54696 z M 9.5131424,102.77062 c 0,-0.83816 0.6541806,-1.49235 1.4923506,-1.49235 H 25.07039 v 5.80586 h -0.858612 c -2.862044,0 -5.23345,1.90122 -6.112507,4.47706 h -7.11422 c -0.838171,0 -1.4923523,-0.65418 -1.4923523,-1.49235 v -7.29822 z"
         id="path996"
         style="stroke-width:2.04432" />
      <path
         style="fill:#ff934f;fill-opacity:1;stroke:#ff934f;stroke-width:0.338454;stroke-linecap:round;stroke-linejoin:round;stroke-opacity:1;stop-color:#000000"
         d="m 19.693287,53.081966 c 0.500106,-5.077824 2.595968,-11.002526 5.369439,-15.178652 0.970361,-1.461109 2.712105,-3.724823 2.928411,-3.806006 0.06584,-0.02472 4.672827,4.508741 10.237761,10.074329 L 48.346959,54.290886 H 33.960589 19.574221 Z"
         id="path2921" />
      <path
         style="fill:#fff04f;fill-opacity:1;stroke:#fff04f;stroke-width:0.338454;stroke-linecap:round;stroke-linejoin:round;stroke-opacity:1;stop-color:#000000"
         d="M 41.094632,41.123583 30.975529,30.999667 31.691926,30.373756 c 2.224106,-1.943196 7.160438,-4.729167 10.415277,-5.878188 l 1.281222,-0.452295 0.957517,1.70173 c 1.286358,2.286152 3.319767,4.995703 5.316477,7.084298 l 1.644433,1.720109 -0.04657,8.349043 -0.04655,8.349041 z"
         id="path2960" />
      <path
         style="fill:#6dff4f;fill-opacity:1;stroke:#6dff4f;stroke-width:0.338454;stroke-linecap:round;stroke-linejoin:round;stroke-opacity:1;stop-color:#000000"
         d="M 55.601663,42.84701 V 34.538557 L 56.993128,33.0867 c 2.318247,-2.418862 4.323092,-5.11585 5.834543,-7.848817 l 0.665359,-1.203084 1.292967,0.449788 c 3.130684,1.089077 7.708358,3.682716 10.407215,5.896563 l 0.655011,0.537297 -10.123281,10.118506 -10.123279,10.118509 z"
         id="path2999" />
      <path
         style="fill:#4fffd7;fill-opacity:1;stroke:#4fffd7;stroke-width:0.338454;stroke-linecap:round;stroke-linejoin:round;stroke-opacity:1;stop-color:#000000"
         d="m 68.706782,44.141297 10.149592,-10.149591 0.506613,0.592154 c 0.278638,0.325686 1.00691,1.286391 1.618381,2.134902 3.465373,4.808724 5.465723,10.154755 6.223218,16.631854 l 0.10996,0.94027 H 72.935868 58.55719 Z"
         id="path3038" />
      <path
         style="fill:#4f75ff;fill-opacity:1;stroke:#4f75ff;stroke-width:0.338454;stroke-linecap:round;stroke-linejoin:round;stroke-opacity:1;stop-color:#000000"
         d="M 68.76545,68.618818 58.737097,58.589268 h 14.219557 14.219553 l -0.108436,1.406162 c -0.361629,4.689531 -2.395866,10.414526 -5.249427,14.773566 -1.128818,1.724352 -2.738715,3.847124 -2.934389,3.869202 -0.04958,0.0056 -4.602906,-4.503126 -10.118502,-10.01938 z"
         id="path3077" />
      <path
         style="fill:#c34fff;fill-opacity:1;stroke:#c34fff;stroke-width:0.338454;stroke-linecap:round;stroke-linejoin:round;stroke-opacity:1;stop-color:#000000"
         d="M 55.601663,75.943458 V 61.724702 l 10.029553,10.028353 c 5.516255,5.515596 10.025741,10.06892 10.021079,10.118502 -0.0161,0.171292 -1.966274,1.65573 -3.684265,2.804399 -4.346078,2.905837 -10.063369,4.960613 -14.932477,5.366682 l -1.43389,0.119587 z"
         id="path3116" />
      <path
         style="fill:#ff4fbd;fill-opacity:1;stroke:#ff4fbd;stroke-width:0.338454;stroke-linecap:round;stroke-linejoin:round;stroke-opacity:1;stop-color:#000000"
         d="M 47.631752,89.764739 C 41.910348,88.75312 36.144765,86.075587 31.793476,82.409455 L 31.049479,81.782608 41.17638,71.664099 51.303285,61.545593 v 14.282561 14.282565 l -0.940271,-0.01464 c -0.51715,-0.008 -1.746219,-0.157154 -2.731262,-0.331324 z"
         id="path3155" />
      <path
         style="fill:#ff4f4f;fill-opacity:1;stroke:#ff4f4f;stroke-width:0.338454;stroke-linecap:round;stroke-linejoin:round;stroke-opacity:1;stop-color:#000000"
         d="m 26.989604,77.529002 c -3.895145,-4.940455 -6.319151,-10.633955 -7.116266,-16.71468 -0.148831,-1.135365 -0.270606,-2.100471 -0.270606,-2.144678 0,-0.04421 6.427151,-0.08037 14.282557,-0.08037 h 14.282558 l -10.028352,10.02955 c -5.515593,5.516253 -10.082129,10.029553 -10.147858,10.029553 -0.06573,0 -0.516642,-0.503715 -1.002033,-1.11937 z"
         id="path3194" />
    </g>
    <text
       xml:space="preserve"
       style="font-size:4.23333px;line-height:1.25;font-family:Sarai;-inkscape-font-specification:Sarai;text-decoration-color:#000000;fill:#8996a8;fill-opacity:1;stroke:none;stroke-width:3.383;stroke-miterlimit:4;stroke-dasharray:none;stop-color:#000000"
       x="13.642972"
       y="128.15814"
       id="text3815"><tspan
         sodipodi:role="line"
         id="tspan3813"
         style="font-size:4.23333px;fill:#8996a8;fill-opacity:1;stroke:none;stroke-width:3.383;stroke-miterlimit:4;stroke-dasharray:none"
         x="13.642972"
         y="128.15814">Image adapted from: https://www.svgrepo.com/svg/422180/wheel-lucky-game</tspan></text>
    <g
       id="SVGRepo_bgCarrier-0"
       stroke-width="0"
       transform="matrix(0.0352747,0,0,0.0352747,136.08709,42.875244)" />
    <g
       id="SVGRepo_tracerCarrier-6"
       stroke-linecap="round"
       stroke-linejoin="round"
       transform="matrix(0.0352747,0,0,0.0352747,136.08709,42.875244)" />
    <g
       id="SVGRepo_bgCarrier-5"
       stroke-width="0"
       transform="matrix(0.03363899,0,0,0.03363899,136.65385,40.335905)" />
    <g
       id="SVGRepo_tracerCarrier-5"
       stroke-linecap="round"
       stroke-linejoin="round"
       transform="matrix(0.03363899,0,0,0.03363899,136.65385,40.335905)" />
    <g
       id="SVGRepo_bgCarrier-3"
       stroke-width="0"
       transform="matrix(0.03335431,0,0,0.03335431,138.70252,-6.8969729)" />
    <g
       id="SVGRepo_tracerCarrier-8"
       stroke-linecap="round"
       stroke-linejoin="round"
       transform="matrix(0.03335431,0,0,0.03335431,138.70252,-6.8969729)" />
  </g>
</svg>
